<svg xmlns="http://www.w3.org/2000/svg" xml:space="preserve" width="2000" height="1500" data-id="lg_QGe1CwOYGmOdo15szo" data-version="1" viewBox="0 0 2000 1500"><path stroke="transparent" d="M0 0h2000v1500H0z"/><g data-padding="20"><g transform="translate(-992.397 -715.1)scale(1.85406)"><rect width="254.079" height="559.35" x="547.076" y="110.369" fill="none" rx="0" ry="0" transform="translate(400.5 400.17)"/><path fill="#ff4136" d="M1108.986 950.554q.72 0-7.98-.85-8.7-.84-22.6-2.41-13.89-1.58-29.6-3.39t-29.61-3.38-22.48-2.66-8.1-1.09q-10.87-19.09-13.77-34.68t-1.21-27.44q1.69-11.84 5.07-19.57 3.39-7.74 4.84-11.36 29.49 2.17 56.92 14.74t50.88 28.52l14.5-6.04q2.17-10.88 3.14-22.72t-2.18-22.24q-11.6-3.14-30.93-11.72-19.34-8.58-40.37-20.18-21.02-11.6-37.7-23.93t-22.72-22.72q-2.18-8.22-3.75-22.72t-2.66-31.3q-1.08-16.8-2.05-32.39t-2.18-25.98q17.41-28.04 39.52-45.08 22.12-17.04 49.19-28.64 8.94 2.66 19.94 7.98 10.99 5.32 20.9 10.63 9.91 5.32 14.75 7.74l77.34-3.63q5.8 22.96 3.63 42.42-2.18 19.46-8.58 34.32-6.41 14.87-13.9 24.05-7.49 9.19-12.57 11.6-10.88-2.41-27.31-9.3-16.44-6.89-33.96-17.89t-32.27-25.5h-3.14l-9.18 50.76q9.91 5.56 28.52 18.13 18.61 12.56 40.24 28.88 21.63 16.31 40.73 33.72 19.09 17.4 29.48 32.87 1.21 11.6-1.81 28.88t-7.13 33.48q-4.11 16.19-6.77 24.65-13.77 13.78-28.88 25.62t-34.2 19.82"/></g><path fill="transparent" stroke="transparent" stroke-width="2.013" d="M744.41 187.5h511.18v1125H744.41z"/></g></svg>